<svg host="65bd71144e" xmlns="http://www.w3.org/2000/svg" xmlns:xlink="http://www.w3.org/1999/xlink" version="1.1" width="194px" height="188px" viewBox="-0.5 -0.5 194 188">
    <defs/>
    <g>
        <path d="M 74.76 48.17 L 109.24 48.17 L 119.76 17 L 130.28 48.17 L 164.76 48.17 L 137.29 69.04 L 148.18 102 L 119.76 81.6 L 91.34 102 L 102.23 69.04 Z" fill="#fff2cc" stroke="#ff0000" stroke-miterlimit="10" transform="rotate(30,119.76,59.5)" pointer-events="all"/>
        <ellipse cx="72.44" cy="52" rx="5" ry="5" fill="#fff2cc" stroke="#ff0000" pointer-events="all"/>
        <path d="M 163.27 62.83 L 163.27 57 L 167.44 61.17 L 171.61 57 L 171.61 62.83 L 177.44 62.83 L 173.27 67 L 177.44 71.17 L 171.61 71.17 L 171.61 77 L 167.44 72.83 L 163.27 77 L 163.27 71.17 L 157.44 71.17 L 161.61 67 L 157.44 62.83 Z" fill="#fff2cc" stroke="#ff0000" stroke-miterlimit="10" transform="rotate(15,167.44,67)" pointer-events="all"/>
        <path d="M 13.65 85.06 L 13.65 71.38 L 25.22 78.2 L 36.79 71.38 L 36.79 85.06 L 47.44 91.36 L 36.79 97.7 L 36.79 111.38 L 25.22 104.52 L 13.65 111.38 L 13.65 97.7 L 3 91.36 Z" fill="#fff2cc" stroke="#ff0000" stroke-miterlimit="10" transform="rotate(10,25.22,91.38)" pointer-events="all"/>
        <path d="M 52.44 72.67 L 79.26 72.67 L 87.44 47 L 95.62 72.67 L 122.44 72.67 L 101.07 89.86 L 109.55 117 L 87.44 100.2 L 65.33 117 L 73.81 89.86 Z" fill="#fff2cc" stroke="#ff0000" stroke-miterlimit="10" transform="rotate(-8,87.44,82)" pointer-events="all"/>
        <ellipse cx="147.44" cy="177" rx="10" ry="10" fill="#fff2cc" stroke="#ff0000" pointer-events="all"/>
        <ellipse cx="107.44" cy="17" rx="10" ry="10" fill="#fff2cc" stroke="#ff0000" pointer-events="all"/>
        <path d="M 53.27 120.33 L 53.27 114.5 L 57.44 118.67 L 61.61 114.5 L 61.61 120.33 L 67.44 120.33 L 63.27 124.5 L 67.44 128.67 L 61.61 128.67 L 61.61 134.5 L 57.44 130.33 L 53.27 134.5 L 53.27 128.67 L 47.44 128.67 L 51.61 124.5 L 47.44 120.33 Z" fill="#fff2cc" stroke="#ff0000" stroke-miterlimit="10" transform="rotate(15,57.44,124.5)" pointer-events="all"/>
        <path d="M 108.27 152.83 L 108.27 147 L 112.44 151.17 L 116.61 147 L 116.61 152.83 L 122.44 152.83 L 118.27 157 L 122.44 161.17 L 116.61 161.17 L 116.61 167 L 112.44 162.83 L 108.27 167 L 108.27 161.17 L 102.44 161.17 L 106.61 157 L 102.44 152.83 Z" fill="#fff2cc" stroke="#ff0000" stroke-miterlimit="10" transform="rotate(15,112.44,157)" pointer-events="all"/>
        <path d="M 20.44 27 L 42.44 32 L 20.44 37 Z" fill="#fff2cc" stroke="#ff0000" stroke-miterlimit="10" transform="rotate(-140,31.44,32)" pointer-events="all"/>
        <path d="M 168.66 27 L 190.66 32 L 168.66 37 Z" fill="#fff2cc" stroke="#ff0000" stroke-miterlimit="10" transform="rotate(-30,179.66,32)" pointer-events="all"/>
        <path d="M 156.87 120.68 L 156.87 107 L 168.44 113.82 L 180.01 107 L 180.01 120.68 L 190.66 126.98 L 180.01 133.32 L 180.01 147 L 168.44 140.14 L 156.87 147 L 156.87 133.32 L 146.22 126.98 Z" fill="#fff2cc" stroke="#ff0000" stroke-miterlimit="10" transform="rotate(5,168.44,127)" pointer-events="all"/>
    </g>
</svg>