<?xml version="1.0" encoding="UTF-8"?>
<!-- Do not edit this file with editors other than draw.io -->
<!DOCTYPE svg PUBLIC "-//W3C//DTD SVG 1.1//EN" "http://www.w3.org/Graphics/SVG/1.1/DTD/svg11.dtd">
<svg xmlns="http://www.w3.org/2000/svg" xmlns:xlink="http://www.w3.org/1999/xlink" version="1.1" width="413px" height="274px" viewBox="-0.5 -0.5 413 274" content="&lt;mxfile host=&quot;app.diagrams.net&quot; modified=&quot;2024-02-08T03:47:25.490Z&quot; agent=&quot;Mozilla/5.0 (Windows NT 10.0; Win64; x64) AppleWebKit/537.36 (KHTML, like Gecko) Chrome/121.0.0.0 Safari/537.36 Edg/121.0.0.0&quot; etag=&quot;gnUgeY6bofjefa9TgoQ7&quot; version=&quot;23.1.2&quot; type=&quot;device&quot;&gt;&#10;  &lt;diagram name=&quot;第 1 页&quot; id=&quot;i-vwjyasqtkIlWVNMqn4&quot;&gt;&#10;    &lt;mxGraphModel dx=&quot;983&quot; dy=&quot;518&quot; grid=&quot;1&quot; gridSize=&quot;1&quot; guides=&quot;1&quot; tooltips=&quot;1&quot; connect=&quot;1&quot; arrows=&quot;1&quot; fold=&quot;1&quot; page=&quot;1&quot; pageScale=&quot;1&quot; pageWidth=&quot;827&quot; pageHeight=&quot;1169&quot; math=&quot;0&quot; shadow=&quot;0&quot;&gt;&#10;      &lt;root&gt;&#10;        &lt;mxCell id=&quot;0&quot; /&gt;&#10;        &lt;mxCell id=&quot;1&quot; parent=&quot;0&quot; /&gt;&#10;        &lt;mxCell id=&quot;BYBHTKgjXTGNT5f7geCS-7&quot; value=&quot;&quot; style=&quot;group;rotation=-60;&quot; vertex=&quot;1&quot; connectable=&quot;0&quot; parent=&quot;1&quot;&gt;&#10;          &lt;mxGeometry x=&quot;309&quot; y=&quot;115&quot; width=&quot;50&quot; height=&quot;223&quot; as=&quot;geometry&quot; /&gt;&#10;        &lt;/mxCell&gt;&#10;        &lt;mxCell id=&quot;BYBHTKgjXTGNT5f7geCS-1&quot; value=&quot;&quot; style=&quot;rounded=1;whiteSpace=wrap;html=1;fillColor=#4D4D4D;strokeColor=#4D4D4D;glass=0;shadow=0;rotation=-60;&quot; vertex=&quot;1&quot; parent=&quot;BYBHTKgjXTGNT5f7geCS-7&quot;&gt;&#10;          &lt;mxGeometry x=&quot;-58&quot; y=&quot;47&quot; width=&quot;3&quot; height=&quot;35&quot; as=&quot;geometry&quot; /&gt;&#10;        &lt;/mxCell&gt;&#10;        &lt;mxCell id=&quot;BYBHTKgjXTGNT5f7geCS-2&quot; value=&quot;&quot; style=&quot;shape=cylinder3;whiteSpace=wrap;html=1;boundedLbl=1;backgroundOutline=1;size=15;fillColor=#FF0000;rotation=-240;&quot; vertex=&quot;1&quot; parent=&quot;BYBHTKgjXTGNT5f7geCS-7&quot;&gt;&#10;          &lt;mxGeometry x=&quot;10&quot; y=&quot;17&quot; width=&quot;50&quot; height=&quot;200&quot; as=&quot;geometry&quot; /&gt;&#10;        &lt;/mxCell&gt;&#10;        &lt;mxCell id=&quot;BYBHTKgjXTGNT5f7geCS-3&quot; value=&quot;&quot; style=&quot;ellipse;whiteSpace=wrap;html=1;strokeWidth=1;perimeterSpacing=0;strokeColor=default;rotation=-240;fillColor=#FFFFFF;&quot; vertex=&quot;1&quot; parent=&quot;BYBHTKgjXTGNT5f7geCS-7&quot;&gt;&#10;          &lt;mxGeometry x=&quot;86&quot; y=&quot;147&quot; width=&quot;46&quot; height=&quot;26&quot; as=&quot;geometry&quot; /&gt;&#10;        &lt;/mxCell&gt;&#10;        &lt;mxCell id=&quot;BYBHTKgjXTGNT5f7geCS-4&quot; value=&quot;&quot; style=&quot;shape=dataStorage;whiteSpace=wrap;html=1;fixedSize=1;rotation=-330;size=8.629999999999995;fillColor=#FFE599;&quot; vertex=&quot;1&quot; parent=&quot;BYBHTKgjXTGNT5f7geCS-7&quot;&gt;&#10;          &lt;mxGeometry x=&quot;70&quot; y=&quot;118&quot; width=&quot;19.25&quot; height=&quot;49&quot; as=&quot;geometry&quot; /&gt;&#10;        &lt;/mxCell&gt;&#10;        &lt;mxCell id=&quot;BYBHTKgjXTGNT5f7geCS-5&quot; value=&quot;&quot; style=&quot;shape=dataStorage;whiteSpace=wrap;html=1;fixedSize=1;rotation=-330;size=8.629999999999995;fillColor=#FFE599;&quot; vertex=&quot;1&quot; parent=&quot;BYBHTKgjXTGNT5f7geCS-7&quot;&gt;&#10;          &lt;mxGeometry x=&quot;-40&quot; y=&quot;55&quot; width=&quot;19.25&quot; height=&quot;49&quot; as=&quot;geometry&quot; /&gt;&#10;        &lt;/mxCell&gt;&#10;        &lt;mxCell id=&quot;BYBHTKgjXTGNT5f7geCS-8&quot; value=&quot;&quot; style=&quot;group;rotation=60;&quot; vertex=&quot;1&quot; connectable=&quot;0&quot; parent=&quot;1&quot;&gt;&#10;          &lt;mxGeometry x=&quot;115&quot; y=&quot;116&quot; width=&quot;50.004999999999995&quot; height=&quot;220&quot; as=&quot;geometry&quot; /&gt;&#10;        &lt;/mxCell&gt;&#10;        &lt;mxCell id=&quot;FbBgE4kFY0mq3rE_tiL2-1&quot; value=&quot;&quot; style=&quot;shape=cylinder3;whiteSpace=wrap;html=1;boundedLbl=1;backgroundOutline=1;size=15;fillColor=#FF0000;rotation=60;&quot; parent=&quot;BYBHTKgjXTGNT5f7geCS-8&quot; vertex=&quot;1&quot;&gt;&#10;          &lt;mxGeometry x=&quot;-9&quot; y=&quot;15&quot; width=&quot;50&quot; height=&quot;200&quot; as=&quot;geometry&quot; /&gt;&#10;        &lt;/mxCell&gt;&#10;        &lt;mxCell id=&quot;FbBgE4kFY0mq3rE_tiL2-7&quot; value=&quot;&quot; style=&quot;ellipse;whiteSpace=wrap;html=1;strokeWidth=3;perimeterSpacing=0;strokeColor=#4D4D4D;rotation=60;&quot; parent=&quot;BYBHTKgjXTGNT5f7geCS-8&quot; vertex=&quot;1&quot;&gt;&#10;          &lt;mxGeometry x=&quot;67&quot; y=&quot;59&quot; width=&quot;46&quot; height=&quot;26&quot; as=&quot;geometry&quot; /&gt;&#10;        &lt;/mxCell&gt;&#10;        &lt;mxCell id=&quot;FbBgE4kFY0mq3rE_tiL2-13&quot; value=&quot;&quot; style=&quot;shape=dataStorage;whiteSpace=wrap;html=1;fixedSize=1;rotation=-30;size=8.629999999999995;fillColor=#FFE599;&quot; parent=&quot;BYBHTKgjXTGNT5f7geCS-8&quot; vertex=&quot;1&quot;&gt;&#10;          &lt;mxGeometry x=&quot;51&quot; y=&quot;65&quot; width=&quot;19.25&quot; height=&quot;50&quot; as=&quot;geometry&quot; /&gt;&#10;        &lt;/mxCell&gt;&#10;        &lt;mxCell id=&quot;FbBgE4kFY0mq3rE_tiL2-16&quot; value=&quot;&quot; style=&quot;rounded=1;whiteSpace=wrap;html=1;fillColor=#4D4D4D;strokeColor=#4D4D4D;glass=0;shadow=0;rotation=60;&quot; parent=&quot;BYBHTKgjXTGNT5f7geCS-8&quot; vertex=&quot;1&quot;&gt;&#10;          &lt;mxGeometry x=&quot;104&quot; y=&quot;46&quot; width=&quot;3&quot; height=&quot;35&quot; as=&quot;geometry&quot; /&gt;&#10;        &lt;/mxCell&gt;&#10;        &lt;mxCell id=&quot;FbBgE4kFY0mq3rE_tiL2-20&quot; value=&quot;&quot; style=&quot;shape=dataStorage;whiteSpace=wrap;html=1;fixedSize=1;rotation=-30;size=8.629999999999995;fillColor=#FFE599;&quot; parent=&quot;BYBHTKgjXTGNT5f7geCS-8&quot; vertex=&quot;1&quot;&gt;&#10;          &lt;mxGeometry x=&quot;-58&quot; y=&quot;128&quot; width=&quot;19.25&quot; height=&quot;50&quot; as=&quot;geometry&quot; /&gt;&#10;        &lt;/mxCell&gt;&#10;        &lt;mxCell id=&quot;BYBHTKgjXTGNT5f7geCS-9&quot; value=&quot;&quot; style=&quot;rounded=1;whiteSpace=wrap;html=1;fillColor=#4D4D4D;strokeColor=#4D4D4D;glass=0;shadow=0;rotation=-60;&quot; vertex=&quot;1&quot; parent=&quot;1&quot;&gt;&#10;          &lt;mxGeometry x=&quot;251&quot; y=&quot;98&quot; width=&quot;3&quot; height=&quot;35&quot; as=&quot;geometry&quot; /&gt;&#10;        &lt;/mxCell&gt;&#10;        &lt;mxCell id=&quot;BYBHTKgjXTGNT5f7geCS-10&quot; value=&quot;&quot; style=&quot;shape=cylinder3;whiteSpace=wrap;html=1;boundedLbl=1;backgroundOutline=1;size=15;fillColor=#FF0000;rotation=-240;&quot; vertex=&quot;1&quot; parent=&quot;1&quot;&gt;&#10;          &lt;mxGeometry x=&quot;319&quot; y=&quot;68&quot; width=&quot;50&quot; height=&quot;200&quot; as=&quot;geometry&quot; /&gt;&#10;        &lt;/mxCell&gt;&#10;        &lt;mxCell id=&quot;BYBHTKgjXTGNT5f7geCS-11&quot; value=&quot;&quot; style=&quot;ellipse;whiteSpace=wrap;html=1;strokeWidth=1;perimeterSpacing=0;strokeColor=default;rotation=-240;fillColor=#FFFFFF;&quot; vertex=&quot;1&quot; parent=&quot;1&quot;&gt;&#10;          &lt;mxGeometry x=&quot;395&quot; y=&quot;198&quot; width=&quot;46&quot; height=&quot;26&quot; as=&quot;geometry&quot; /&gt;&#10;        &lt;/mxCell&gt;&#10;        &lt;mxCell id=&quot;BYBHTKgjXTGNT5f7geCS-12&quot; value=&quot;&quot; style=&quot;shape=dataStorage;whiteSpace=wrap;html=1;fixedSize=1;rotation=-330;size=8.629999999999995;fillColor=#FFE599;&quot; vertex=&quot;1&quot; parent=&quot;1&quot;&gt;&#10;          &lt;mxGeometry x=&quot;379&quot; y=&quot;169&quot; width=&quot;19.25&quot; height=&quot;49&quot; as=&quot;geometry&quot; /&gt;&#10;        &lt;/mxCell&gt;&#10;        &lt;mxCell id=&quot;BYBHTKgjXTGNT5f7geCS-13&quot; value=&quot;&quot; style=&quot;shape=dataStorage;whiteSpace=wrap;html=1;fixedSize=1;rotation=-330;size=8.629999999999995;fillColor=#FFE599;&quot; vertex=&quot;1&quot; parent=&quot;1&quot;&gt;&#10;          &lt;mxGeometry x=&quot;269&quot; y=&quot;106&quot; width=&quot;19.25&quot; height=&quot;49&quot; as=&quot;geometry&quot; /&gt;&#10;        &lt;/mxCell&gt;&#10;        &lt;mxCell id=&quot;BYBHTKgjXTGNT5f7geCS-14&quot; value=&quot;&quot; style=&quot;shape=cylinder3;whiteSpace=wrap;html=1;boundedLbl=1;backgroundOutline=1;size=15;fillColor=#FF0000;rotation=60;&quot; vertex=&quot;1&quot; parent=&quot;1&quot;&gt;&#10;          &lt;mxGeometry x=&quot;106&quot; y=&quot;67&quot; width=&quot;50&quot; height=&quot;200&quot; as=&quot;geometry&quot; /&gt;&#10;        &lt;/mxCell&gt;&#10;        &lt;mxCell id=&quot;BYBHTKgjXTGNT5f7geCS-15&quot; value=&quot;&quot; style=&quot;ellipse;whiteSpace=wrap;html=1;strokeWidth=3;perimeterSpacing=0;strokeColor=#4D4D4D;rotation=60;&quot; vertex=&quot;1&quot; parent=&quot;1&quot;&gt;&#10;          &lt;mxGeometry x=&quot;182&quot; y=&quot;111&quot; width=&quot;46&quot; height=&quot;26&quot; as=&quot;geometry&quot; /&gt;&#10;        &lt;/mxCell&gt;&#10;        &lt;mxCell id=&quot;BYBHTKgjXTGNT5f7geCS-16&quot; value=&quot;&quot; style=&quot;shape=dataStorage;whiteSpace=wrap;html=1;fixedSize=1;rotation=-30;size=8.629999999999995;fillColor=#FFE599;&quot; vertex=&quot;1&quot; parent=&quot;1&quot;&gt;&#10;          &lt;mxGeometry x=&quot;166&quot; y=&quot;117&quot; width=&quot;19.25&quot; height=&quot;50&quot; as=&quot;geometry&quot; /&gt;&#10;        &lt;/mxCell&gt;&#10;        &lt;mxCell id=&quot;BYBHTKgjXTGNT5f7geCS-17&quot; value=&quot;&quot; style=&quot;rounded=1;whiteSpace=wrap;html=1;fillColor=#4D4D4D;strokeColor=#4D4D4D;glass=0;shadow=0;rotation=60;&quot; vertex=&quot;1&quot; parent=&quot;1&quot;&gt;&#10;          &lt;mxGeometry x=&quot;219&quot; y=&quot;98&quot; width=&quot;3&quot; height=&quot;35&quot; as=&quot;geometry&quot; /&gt;&#10;        &lt;/mxCell&gt;&#10;        &lt;mxCell id=&quot;BYBHTKgjXTGNT5f7geCS-18&quot; value=&quot;&quot; style=&quot;shape=dataStorage;whiteSpace=wrap;html=1;fixedSize=1;rotation=-30;size=8.629999999999995;fillColor=#FFE599;&quot; vertex=&quot;1&quot; parent=&quot;1&quot;&gt;&#10;          &lt;mxGeometry x=&quot;57&quot; y=&quot;180&quot; width=&quot;19.25&quot; height=&quot;50&quot; as=&quot;geometry&quot; /&gt;&#10;        &lt;/mxCell&gt;&#10;        &lt;mxCell id=&quot;BYBHTKgjXTGNT5f7geCS-19&quot; value=&quot;&quot; style=&quot;rounded=1;whiteSpace=wrap;html=1;fillColor=#4D4D4D;strokeColor=#4D4D4D;glass=0;shadow=0;rotation=-60;&quot; vertex=&quot;1&quot; parent=&quot;1&quot;&gt;&#10;          &lt;mxGeometry x=&quot;251&quot; y=&quot;34&quot; width=&quot;3&quot; height=&quot;35&quot; as=&quot;geometry&quot; /&gt;&#10;        &lt;/mxCell&gt;&#10;        &lt;mxCell id=&quot;BYBHTKgjXTGNT5f7geCS-20&quot; value=&quot;&quot; style=&quot;shape=cylinder3;whiteSpace=wrap;html=1;boundedLbl=1;backgroundOutline=1;size=15;fillColor=#FF0000;rotation=-240;&quot; vertex=&quot;1&quot; parent=&quot;1&quot;&gt;&#10;          &lt;mxGeometry x=&quot;319&quot; y=&quot;4&quot; width=&quot;50&quot; height=&quot;200&quot; as=&quot;geometry&quot; /&gt;&#10;        &lt;/mxCell&gt;&#10;        &lt;mxCell id=&quot;BYBHTKgjXTGNT5f7geCS-21&quot; value=&quot;&quot; style=&quot;ellipse;whiteSpace=wrap;html=1;strokeWidth=1;perimeterSpacing=0;strokeColor=default;rotation=-240;fillColor=#FFFFFF;&quot; vertex=&quot;1&quot; parent=&quot;1&quot;&gt;&#10;          &lt;mxGeometry x=&quot;395&quot; y=&quot;134&quot; width=&quot;46&quot; height=&quot;26&quot; as=&quot;geometry&quot; /&gt;&#10;        &lt;/mxCell&gt;&#10;        &lt;mxCell id=&quot;BYBHTKgjXTGNT5f7geCS-22&quot; value=&quot;&quot; style=&quot;shape=dataStorage;whiteSpace=wrap;html=1;fixedSize=1;rotation=-330;size=8.629999999999995;fillColor=#FFE599;&quot; vertex=&quot;1&quot; parent=&quot;1&quot;&gt;&#10;          &lt;mxGeometry x=&quot;379&quot; y=&quot;105&quot; width=&quot;19.25&quot; height=&quot;49&quot; as=&quot;geometry&quot; /&gt;&#10;        &lt;/mxCell&gt;&#10;        &lt;mxCell id=&quot;BYBHTKgjXTGNT5f7geCS-23&quot; value=&quot;&quot; style=&quot;shape=dataStorage;whiteSpace=wrap;html=1;fixedSize=1;rotation=-330;size=8.629999999999995;fillColor=#FFE599;&quot; vertex=&quot;1&quot; parent=&quot;1&quot;&gt;&#10;          &lt;mxGeometry x=&quot;269&quot; y=&quot;42&quot; width=&quot;19.25&quot; height=&quot;49&quot; as=&quot;geometry&quot; /&gt;&#10;        &lt;/mxCell&gt;&#10;        &lt;mxCell id=&quot;BYBHTKgjXTGNT5f7geCS-24&quot; value=&quot;&quot; style=&quot;shape=cylinder3;whiteSpace=wrap;html=1;boundedLbl=1;backgroundOutline=1;size=15;fillColor=#FF0000;rotation=60;&quot; vertex=&quot;1&quot; parent=&quot;1&quot;&gt;&#10;          &lt;mxGeometry x=&quot;106&quot; y=&quot;3&quot; width=&quot;50&quot; height=&quot;200&quot; as=&quot;geometry&quot; /&gt;&#10;        &lt;/mxCell&gt;&#10;        &lt;mxCell id=&quot;BYBHTKgjXTGNT5f7geCS-25&quot; value=&quot;&quot; style=&quot;ellipse;whiteSpace=wrap;html=1;strokeWidth=3;perimeterSpacing=0;strokeColor=#4D4D4D;rotation=60;&quot; vertex=&quot;1&quot; parent=&quot;1&quot;&gt;&#10;          &lt;mxGeometry x=&quot;182&quot; y=&quot;47&quot; width=&quot;46&quot; height=&quot;26&quot; as=&quot;geometry&quot; /&gt;&#10;        &lt;/mxCell&gt;&#10;        &lt;mxCell id=&quot;BYBHTKgjXTGNT5f7geCS-26&quot; value=&quot;&quot; style=&quot;shape=dataStorage;whiteSpace=wrap;html=1;fixedSize=1;rotation=-30;size=8.629999999999995;fillColor=#FFE599;&quot; vertex=&quot;1&quot; parent=&quot;1&quot;&gt;&#10;          &lt;mxGeometry x=&quot;166&quot; y=&quot;53&quot; width=&quot;19.25&quot; height=&quot;50&quot; as=&quot;geometry&quot; /&gt;&#10;        &lt;/mxCell&gt;&#10;        &lt;mxCell id=&quot;BYBHTKgjXTGNT5f7geCS-27&quot; value=&quot;&quot; style=&quot;rounded=1;whiteSpace=wrap;html=1;fillColor=#4D4D4D;strokeColor=#4D4D4D;glass=0;shadow=0;rotation=60;&quot; vertex=&quot;1&quot; parent=&quot;1&quot;&gt;&#10;          &lt;mxGeometry x=&quot;219&quot; y=&quot;34&quot; width=&quot;3&quot; height=&quot;35&quot; as=&quot;geometry&quot; /&gt;&#10;        &lt;/mxCell&gt;&#10;        &lt;mxCell id=&quot;BYBHTKgjXTGNT5f7geCS-28&quot; value=&quot;&quot; style=&quot;shape=dataStorage;whiteSpace=wrap;html=1;fixedSize=1;rotation=-30;size=8.629999999999995;fillColor=#FFE599;&quot; vertex=&quot;1&quot; parent=&quot;1&quot;&gt;&#10;          &lt;mxGeometry x=&quot;57&quot; y=&quot;116&quot; width=&quot;19.25&quot; height=&quot;50&quot; as=&quot;geometry&quot; /&gt;&#10;        &lt;/mxCell&gt;&#10;        &lt;mxCell id=&quot;BYBHTKgjXTGNT5f7geCS-6&quot; value=&quot;&quot; style=&quot;endArrow=none;html=1;rounded=0;strokeWidth=4;&quot; edge=&quot;1&quot; parent=&quot;1&quot;&gt;&#10;          &lt;mxGeometry width=&quot;50&quot; height=&quot;50&quot; relative=&quot;1&quot; as=&quot;geometry&quot;&gt;&#10;            &lt;mxPoint x=&quot;236&quot; y=&quot;238&quot; as=&quot;sourcePoint&quot; /&gt;&#10;            &lt;mxPoint x=&quot;236&quot; y=&quot;41&quot; as=&quot;targetPoint&quot; /&gt;&#10;          &lt;/mxGeometry&gt;&#10;        &lt;/mxCell&gt;&#10;      &lt;/root&gt;&#10;    &lt;/mxGraphModel&gt;&#10;  &lt;/diagram&gt;&#10;&lt;/mxfile&gt;&#10;"><defs/><g><rect x="219" y="131" width="3" height="35" rx="0.45" ry="0.45" fill="#4d4d4d" stroke="#4d4d4d" transform="rotate(-60,220.5,148.5)" pointer-events="all"/><path d="M 287 116 C 287 107.72 298.19 101 312 101 C 318.63 101 324.99 102.58 329.68 105.39 C 334.37 108.21 337 112.02 337 116 L 337 286 C 337 294.28 325.81 301 312 301 C 298.19 301 287 294.28 287 286 Z" fill="#ff0000" stroke="rgb(0, 0, 0)" stroke-miterlimit="10" transform="rotate(-240,312,201)" pointer-events="all"/><path d="M 337 116 C 337 124.28 325.81 131 312 131 C 298.19 131 287 124.28 287 116" fill="none" stroke="rgb(0, 0, 0)" stroke-miterlimit="10" transform="rotate(-240,312,201)" pointer-events="all"/><ellipse cx="386" cy="244" rx="23" ry="12.999999999999998" fill="#ffffff" stroke="rgb(0, 0, 0)" transform="rotate(-240,386,244)" pointer-events="all"/><path d="M 355.63 202 L 366.25 202 Q 348.99 226.5 366.25 251 L 355.63 251 Q 338.37 226.5 355.63 202 Z" fill="#ffe599" stroke="rgb(0, 0, 0)" stroke-miterlimit="10" transform="rotate(-330,356.63,226.5)" pointer-events="all"/><path d="M 245.63 139 L 256.25 139 Q 238.99 163.5 256.25 188 L 245.63 188 Q 228.37 163.5 245.63 139 Z" fill="#ffe599" stroke="rgb(0, 0, 0)" stroke-miterlimit="10" transform="rotate(-330,246.63,163.5)" pointer-events="all"/><path d="M 74 115 C 74 106.72 85.19 100 99 100 C 105.63 100 111.99 101.58 116.68 104.39 C 121.37 107.21 124 111.02 124 115 L 124 285 C 124 293.28 112.81 300 99 300 C 85.19 300 74 293.28 74 285 Z" fill="#ff0000" stroke="rgb(0, 0, 0)" stroke-miterlimit="10" transform="rotate(60,99,200)" pointer-events="all"/><path d="M 124 115 C 124 123.28 112.81 130 99 130 C 85.19 130 74 123.28 74 115" fill="none" stroke="rgb(0, 0, 0)" stroke-miterlimit="10" transform="rotate(60,99,200)" pointer-events="all"/><ellipse cx="173" cy="157" rx="23" ry="12.999999999999998" fill="rgb(255, 255, 255)" stroke="#4d4d4d" stroke-width="3" transform="rotate(60,173,157)" pointer-events="all"/><path d="M 142.63 150 L 153.25 150 Q 135.99 175 153.25 200 L 142.63 200 Q 125.37 175 142.63 150 Z" fill="#ffe599" stroke="rgb(0, 0, 0)" stroke-miterlimit="10" transform="rotate(-30,143.63,175)" pointer-events="all"/><rect x="187" y="131" width="3" height="35" rx="0.45" ry="0.45" fill="#4d4d4d" stroke="#4d4d4d" transform="rotate(60,188.5,148.5)" pointer-events="all"/><path d="M 33.63 213 L 44.25 213 Q 26.99 238 44.25 263 L 33.63 263 Q 16.37 238 33.63 213 Z" fill="#ffe599" stroke="rgb(0, 0, 0)" stroke-miterlimit="10" transform="rotate(-30,34.63,238)" pointer-events="all"/><rect x="219" y="67" width="3" height="35" rx="0.45" ry="0.45" fill="#4d4d4d" stroke="#4d4d4d" transform="rotate(-60,220.5,84.5)" pointer-events="all"/><path d="M 287 52 C 287 43.72 298.19 37 312 37 C 318.63 37 324.99 38.58 329.68 41.39 C 334.37 44.21 337 48.02 337 52 L 337 222 C 337 230.28 325.81 237 312 237 C 298.19 237 287 230.28 287 222 Z" fill="#ff0000" stroke="rgb(0, 0, 0)" stroke-miterlimit="10" transform="rotate(-240,312,137)" pointer-events="all"/><path d="M 337 52 C 337 60.28 325.81 67 312 67 C 298.19 67 287 60.28 287 52" fill="none" stroke="rgb(0, 0, 0)" stroke-miterlimit="10" transform="rotate(-240,312,137)" pointer-events="all"/><ellipse cx="386" cy="180" rx="23" ry="12.999999999999998" fill="#ffffff" stroke="rgb(0, 0, 0)" transform="rotate(-240,386,180)" pointer-events="all"/><path d="M 355.63 138 L 366.25 138 Q 348.99 162.5 366.25 187 L 355.63 187 Q 338.37 162.5 355.63 138 Z" fill="#ffe599" stroke="rgb(0, 0, 0)" stroke-miterlimit="10" transform="rotate(-330,356.63,162.5)" pointer-events="all"/><path d="M 245.63 75 L 256.25 75 Q 238.99 99.5 256.25 124 L 245.63 124 Q 228.37 99.5 245.63 75 Z" fill="#ffe599" stroke="rgb(0, 0, 0)" stroke-miterlimit="10" transform="rotate(-330,246.63,99.5)" pointer-events="all"/><path d="M 74 51 C 74 42.72 85.19 36 99 36 C 105.63 36 111.99 37.58 116.68 40.39 C 121.37 43.21 124 47.02 124 51 L 124 221 C 124 229.28 112.81 236 99 236 C 85.19 236 74 229.28 74 221 Z" fill="#ff0000" stroke="rgb(0, 0, 0)" stroke-miterlimit="10" transform="rotate(60,99,136)" pointer-events="all"/><path d="M 124 51 C 124 59.28 112.81 66 99 66 C 85.19 66 74 59.28 74 51" fill="none" stroke="rgb(0, 0, 0)" stroke-miterlimit="10" transform="rotate(60,99,136)" pointer-events="all"/><ellipse cx="173" cy="93" rx="23" ry="12.999999999999998" fill="rgb(255, 255, 255)" stroke="#4d4d4d" stroke-width="3" transform="rotate(60,173,93)" pointer-events="all"/><path d="M 142.63 86 L 153.25 86 Q 135.99 111 153.25 136 L 142.63 136 Q 125.37 111 142.63 86 Z" fill="#ffe599" stroke="rgb(0, 0, 0)" stroke-miterlimit="10" transform="rotate(-30,143.63,111)" pointer-events="all"/><rect x="187" y="67" width="3" height="35" rx="0.45" ry="0.45" fill="#4d4d4d" stroke="#4d4d4d" transform="rotate(60,188.5,84.5)" pointer-events="all"/><path d="M 33.63 149 L 44.25 149 Q 26.99 174 44.25 199 L 33.63 199 Q 16.37 174 33.63 149 Z" fill="#ffe599" stroke="rgb(0, 0, 0)" stroke-miterlimit="10" transform="rotate(-30,34.63,174)" pointer-events="all"/><rect x="219" y="3" width="3" height="35" rx="0.45" ry="0.45" fill="#4d4d4d" stroke="#4d4d4d" transform="rotate(-60,220.5,20.5)" pointer-events="all"/><path d="M 287 -12 C 287 -20.28 298.19 -27 312 -27 C 318.63 -27 324.99 -25.42 329.68 -22.61 C 334.37 -19.79 337 -15.98 337 -12 L 337 158 C 337 166.28 325.81 173 312 173 C 298.19 173 287 166.28 287 158 Z" fill="#ff0000" stroke="rgb(0, 0, 0)" stroke-miterlimit="10" transform="rotate(-240,312,73)" pointer-events="all"/><path d="M 337 -12 C 337 -3.72 325.81 3 312 3 C 298.19 3 287 -3.72 287 -12" fill="none" stroke="rgb(0, 0, 0)" stroke-miterlimit="10" transform="rotate(-240,312,73)" pointer-events="all"/><ellipse cx="386" cy="116" rx="23" ry="12.999999999999998" fill="#ffffff" stroke="rgb(0, 0, 0)" transform="rotate(-240,386,116)" pointer-events="all"/><path d="M 355.63 74 L 366.25 74 Q 348.99 98.5 366.25 123 L 355.63 123 Q 338.37 98.5 355.63 74 Z" fill="#ffe599" stroke="rgb(0, 0, 0)" stroke-miterlimit="10" transform="rotate(-330,356.63,98.5)" pointer-events="all"/><path d="M 245.63 11 L 256.25 11 Q 238.99 35.5 256.25 60 L 245.63 60 Q 228.37 35.5 245.63 11 Z" fill="#ffe599" stroke="rgb(0, 0, 0)" stroke-miterlimit="10" transform="rotate(-330,246.63,35.5)" pointer-events="all"/><path d="M 74 -13 C 74 -21.28 85.19 -28 99 -28 C 105.63 -28 111.99 -26.42 116.68 -23.61 C 121.37 -20.79 124 -16.98 124 -13 L 124 157 C 124 165.28 112.81 172 99 172 C 85.19 172 74 165.28 74 157 Z" fill="#ff0000" stroke="rgb(0, 0, 0)" stroke-miterlimit="10" transform="rotate(60,99,72)" pointer-events="all"/><path d="M 124 -13 C 124 -4.72 112.81 2 99 2 C 85.19 2 74 -4.72 74 -13" fill="none" stroke="rgb(0, 0, 0)" stroke-miterlimit="10" transform="rotate(60,99,72)" pointer-events="all"/><ellipse cx="173" cy="29" rx="23" ry="12.999999999999998" fill="rgb(255, 255, 255)" stroke="#4d4d4d" stroke-width="3" transform="rotate(60,173,29)" pointer-events="all"/><path d="M 142.63 22 L 153.25 22 Q 135.99 47 153.25 72 L 142.63 72 Q 125.37 47 142.63 22 Z" fill="#ffe599" stroke="rgb(0, 0, 0)" stroke-miterlimit="10" transform="rotate(-30,143.63,47)" pointer-events="all"/><rect x="187" y="3" width="3" height="35" rx="0.45" ry="0.45" fill="#4d4d4d" stroke="#4d4d4d" transform="rotate(60,188.5,20.5)" pointer-events="all"/><path d="M 33.63 85 L 44.25 85 Q 26.99 110 44.25 135 L 33.63 135 Q 16.37 110 33.63 85 Z" fill="#ffe599" stroke="rgb(0, 0, 0)" stroke-miterlimit="10" transform="rotate(-30,34.63,110)" pointer-events="all"/><path d="M 204 207 L 204 10" fill="none" stroke="rgb(0, 0, 0)" stroke-width="4" stroke-miterlimit="10" pointer-events="stroke"/></g></svg>